<svg width="138" height="40" viewBox="0 0 138 40" fill="none" xmlns="http://www.w3.org/2000/svg">
<g clip-path="url(#clip0_5_906)">
<path d="M107.893 10.1324L122.065 30.3457H127.874L113.702 10.1324H107.893Z" fill="white"/>
<path d="M0 10.302H7.44229C8.59293 10.2814 9.74099 10.4198 10.855 10.7133C11.7292 10.9395 12.554 11.3301 13.2869 11.8648C13.9038 12.3259 14.4031 12.9305 14.743 13.6281C15.079 14.3183 15.2521 15.0787 15.2486 15.8489C15.2518 16.4133 15.1381 16.972 14.9149 17.4888C14.6871 18.0152 14.3706 18.4971 13.9796 18.9127C13.556 19.3704 13.0668 19.7604 12.5285 20.0694C11.9362 20.4145 11.309 20.6937 10.6578 20.9022L17.8119 30.6336H12.6296L5.88507 21.442H4.81827V30.6336H0V10.302ZM4.81827 19.6581H5.88507C7.00737 19.6803 8.1297 19.615 9.24219 19.4628C9.72837 19.3072 10.1812 19.0595 10.5769 18.7328C10.9527 18.418 11.2534 18.0208 11.4567 17.571C11.6736 17.0872 11.7824 16.5605 11.7752 16.0288C11.7811 15.5229 11.699 15.0199 11.5325 14.5431C11.3831 14.1159 11.1549 13.7215 10.8601 13.3813C10.5792 13.0597 10.2346 12.8022 9.8489 12.6256C9.43233 12.4429 8.98298 12.3501 8.5293 12.3532L4.84355 12.2966L4.81827 19.6581Z" fill="white"/>
<path d="M18.1456 10.302H23.0802V23.3749C23.0752 24.1259 23.1983 24.8721 23.4442 25.5802C23.6652 26.2432 24.0083 26.8574 24.4554 27.3898C24.9085 27.9069 25.4631 28.3219 26.0834 28.6081C26.7612 28.9195 27.4986 29.074 28.2422 29.0605C28.9727 29.072 29.6965 28.9175 30.3607 28.6081C30.9764 28.3216 31.526 27.9065 31.9735 27.3898C32.4189 26.8562 32.7619 26.2424 32.9847 25.5802C33.2306 24.8721 33.3537 24.1259 33.3487 23.3749V10.302H36.4581V23.3749C36.4703 24.3902 36.2989 25.3991 35.9525 26.3514C35.6011 27.2908 35.0343 28.1315 34.2992 28.8035C33.46 29.5549 32.4771 30.1219 31.4123 30.4691C30.0428 30.9096 28.6114 31.118 27.1755 31.086C25.8476 31.1098 24.5255 30.9011 23.2672 30.4691C22.2226 30.1079 21.2587 29.5401 20.4309 28.7983C19.6855 28.114 19.097 27.2717 18.7068 26.3308C18.3149 25.3821 18.1154 24.3627 18.1203 23.3337L18.1456 10.302Z" fill="white"/>
<path d="M39.2642 10.302H47.8895C48.9592 10.2909 50.026 10.417 51.0646 10.6773C51.9433 10.888 52.7819 11.244 53.5471 11.7311C54.2021 12.1476 54.7554 12.7101 55.165 13.3762C55.5499 14.0164 55.7497 14.754 55.7413 15.5044C55.7459 15.9533 55.6932 16.4008 55.5846 16.8359C55.4835 17.2484 55.3124 17.6398 55.079 17.9925C54.8153 18.379 54.4986 18.7252 54.1386 19.0207C53.6859 19.4041 53.2022 19.748 52.6926 20.0488C53.2663 20.2293 53.8151 20.4832 54.3257 20.8045C54.805 21.1066 55.2363 21.481 55.6048 21.9149C55.9606 22.334 56.2459 22.8099 56.4492 23.3235C56.653 23.847 56.756 24.4055 56.7525 24.9685C56.7596 25.7466 56.5735 26.514 56.2115 27.1996C55.8416 27.905 55.3238 28.5192 54.6948 28.9988C53.9683 29.5386 53.156 29.9473 52.2932 30.2069C51.2865 30.5136 50.2397 30.6627 49.1889 30.649H39.2642V10.302ZM44.1987 19.1184H48.3243C48.8028 19.1278 49.2785 19.0422 49.7248 18.8665C50.1159 18.7171 50.4698 18.4819 50.7613 18.1776C51.044 17.8836 51.2642 17.5336 51.4084 17.1495C51.5587 16.7205 51.634 16.2682 51.6309 15.8129C51.6357 15.3133 51.5393 14.8181 51.3478 14.358C51.158 13.9144 50.8626 13.5257 50.4882 13.2271C50.053 12.8845 49.5544 12.6344 49.022 12.492C48.0378 12.312 47.039 12.2277 46.0391 12.2401H44.1987V19.1184ZM44.1987 28.5516H48.021C48.7207 28.5648 49.4187 28.4765 50.0939 28.2894C50.617 28.1465 51.108 27.9021 51.5399 27.5697C51.9074 27.2827 52.1978 26.9061 52.3842 26.4747C52.5696 26.0365 52.6626 25.5637 52.6572 25.0867C52.6613 24.5499 52.5758 24.0163 52.4044 23.5085C52.2398 23.0225 51.9582 22.586 51.5854 22.2388C51.1471 21.8487 50.629 21.5625 50.0686 21.4008C49.3345 21.1857 48.5725 21.0851 47.8086 21.1027H44.1785L44.1987 28.5516Z" fill="white"/>
<path d="M59.3209 10.302H64.2403V30.6336H59.3209V10.302Z" fill="white"/>
<path d="M67.7592 10.302H75.0498C76.7954 10.285 78.5352 10.5081 80.222 10.9652C81.6741 11.3607 83.0442 12.019 84.2667 12.9084C85.3756 13.7308 86.2808 14.8045 86.911 16.0442C87.5555 17.3604 87.8782 18.8153 87.8514 20.2853C87.8596 21.6702 87.5877 23.0421 87.0525 24.3156C86.5158 25.5704 85.719 26.6926 84.7167 27.6057C83.6166 28.5927 82.3345 29.3476 80.945 29.8265C79.294 30.3913 77.56 30.6643 75.8183 30.6336H67.7289L67.7592 10.302ZM72.6938 28.5516L76.5312 28.6904C77.4657 28.704 78.3936 28.5293 79.2614 28.1763C80.1137 27.8179 80.8795 27.276 81.5062 26.5879C82.1744 25.8418 82.69 24.9681 83.023 24.0175C83.4089 22.8911 83.5955 21.7041 83.5741 20.5115C83.5926 19.4321 83.4214 18.3579 83.0685 17.3397C82.7466 16.4097 82.2523 15.5511 81.6124 14.8104C80.9912 14.1024 80.2319 13.5334 79.3827 13.1397C78.0889 12.6478 76.7194 12.3936 75.338 12.3892H72.6938V28.5516Z" fill="white"/>
<path d="M95.506 12.0396H105.577V10.302H90.5714V30.6336H105.577V28.5516H95.506V21.4728H103.899V19.3394H95.506V18.7431V12.0396Z" fill="white"/>
<path d="M104.324 8.84718C106.552 6.04102 109.57 3.99212 112.973 2.9735C116.376 1.95488 120.003 2.01491 123.372 3.1456C126.741 4.27629 129.691 6.42393 131.829 9.30236C133.967 12.1808 135.191 15.6533 135.339 19.2573C135.487 22.8612 134.551 26.4254 132.657 29.4749C130.762 32.5244 127.998 34.9144 124.734 36.3265C121.469 37.7385 117.859 38.1056 114.384 37.3788C110.91 36.6519 107.735 34.8657 105.284 32.258C104.217 32.258 103.56 32.258 102.357 32.258C104.898 35.5824 108.406 38.0061 112.382 39.1838C116.358 40.3614 120.597 40.2328 124.497 38.8162C128.396 37.3997 131.756 34.7676 134.098 31.2951C136.44 27.8227 137.643 23.6871 137.537 19.4782C137.432 15.2692 136.021 11.2017 133.508 7.85551C130.995 4.50932 127.507 2.0553 123.541 0.843333C119.576 -0.368638 115.335 -0.276692 111.424 1.10606C107.513 2.48882 104.131 5.09179 101.76 8.54387C101.76 8.54387 101.598 8.81634 101.588 8.8369L104.324 8.84718Z" fill="white"/>
<path d="M121.989 11.7723C122.307 12.3851 122.548 13.0362 122.707 13.7103C122.886 14.4452 122.976 15.1996 122.975 15.9568C123.612 15.1788 124.234 14.43 124.84 13.7103C125.349 13.0797 125.899 12.4337 126.489 11.7723C127.078 11.1108 127.594 10.5471 128.036 10.081H120.452C121.096 10.504 121.625 11.0858 121.989 11.7723Z" fill="white"/>
<path d="M114.152 28.675C113.823 28.0674 113.576 27.4171 113.419 26.7421C113.241 26.0057 113.159 25.2486 113.176 24.4904C112.539 25.265 111.917 26.0155 111.311 26.7421C110.802 27.3761 110.252 28.0204 109.662 28.675C109.076 29.3381 108.56 29.8985 108.115 30.3714H115.699C115.054 29.9445 114.522 29.3617 114.152 28.675Z" fill="white"/>
</g>
<defs>
<clipPath id="clip0_5_906">
<rect width="137.561" height="40" fill="white"/>
</clipPath>
</defs>
</svg>
